<?xml version="1.0" encoding="utf-8"?>
<!-- Generator: Adobe Illustrator 26.5.0, SVG Export Plug-In . SVG Version: 6.00 Build 0)  -->
<svg version="1.1" id="Layer_1" xmlns="http://www.w3.org/2000/svg" xmlns:xlink="http://www.w3.org/1999/xlink" x="0px" y="0px"
	 viewBox="0 0 27 39.3" style="enable-background:new 0 0 27 39.3;" xml:space="preserve">
<style type="text/css">
	.st0{fill:#175038;}
	.st1{fill:#003924;}
	.st2{fill:url(#SVGID_1_);}
	.st3{fill:url(#SVGID_00000137842447650679466400000013438863504888715169_);}
	.st4{fill:url(#SVGID_00000038379871785543712630000002597875144403239587_);}
	.st5{fill:url(#SVGID_00000056412375460219754690000014391249045931882389_);}
</style>
<g>
	<path class="st0" d="M13.5,38.8c-1.8-12.7-13-12.6-13-25.3c0-7.2,5.8-13,13-13s13,5.8,13,13C26.5,24.2,15.5,26.2,13.5,38.8z"/>
	<path class="st1" d="M13.5,39.3C13.5,39.3,13.5,39.3,13.5,39.3c-0.3,0-0.5-0.2-0.5-0.4c-0.8-5.9-3.8-9-6.7-12
		C3.2,23.7,0,20.3,0,13.5C0,6.1,6.1,0,13.5,0S27,6.1,27,13.5c0,5.6-2.9,8.9-6,12.4c-3,3.4-6.1,6.9-7,13C14,39.1,13.7,39.3,13.5,39.3
		z M13.5,1C6.6,1,1,6.6,1,13.5c0,6.4,2.9,9.5,6.1,12.7c2.6,2.7,5.2,5.4,6.5,10.1c1.4-5,4.2-8.2,6.8-11.1c3.1-3.5,5.7-6.5,5.7-11.7
		C26,6.6,20.4,1,13.5,1z"/>
</g>
<g>
	<linearGradient id="SVGID_1_" gradientUnits="userSpaceOnUse" x1="4.3942" y1="16.4963" x2="17.0727" y2="16.4963">
		<stop  offset="0" style="stop-color:#DABF71"/>
		<stop  offset="1" style="stop-color:#CDA703"/>
	</linearGradient>
	<path class="st2" d="M10.7,22.8c-3.5,0-6.3-2.8-6.3-6.3s2.8-6.3,6.3-6.3s6.3,2.8,6.3,6.3S14.2,22.8,10.7,22.8z M10.7,11.8
		c-2.6,0-4.7,2.1-4.7,4.7s2.1,4.7,4.7,4.7s4.7-2.1,4.7-4.7S13.3,11.8,10.7,11.8z"/>
</g>
<g>
	
		<linearGradient id="SVGID_00000077317925235694861260000000587939911049066119_" gradientUnits="userSpaceOnUse" x1="19.4351" y1="6.9577" x2="13.0975" y2="17.9348">
		<stop  offset="0" style="stop-color:#DABF71"/>
		<stop  offset="1" style="stop-color:#CDA703"/>
	</linearGradient>
	<path style="fill:url(#SVGID_00000077317925235694861260000000587939911049066119_);" d="M16.3,18.8c-3.5,0-6.3-2.8-6.3-6.3
		c0-3.5,2.8-6.3,6.3-6.3s6.3,2.8,6.3,6.3C22.6,15.9,19.8,18.8,16.3,18.8z M16.3,7.7c-2.6,0-4.7,2.1-4.7,4.7c0,2.6,2.1,4.7,4.7,4.7
		c2.6,0,4.7-2.1,4.7-4.7C21,9.8,18.9,7.7,16.3,7.7z"/>
</g>
</svg>
