<?xml version="1.0" encoding="utf-8"?>
<!-- Generator: Adobe Illustrator 26.5.0, SVG Export Plug-In . SVG Version: 6.00 Build 0)  -->
<svg version="1.1" id="Layer_2_00000148623081663189826550000012230288534962881979_"
	 xmlns="http://www.w3.org/2000/svg" xmlns:xlink="http://www.w3.org/1999/xlink" x="0px" y="0px" viewBox="0 0 888 491.9"
	 style="enable-background:new 0 0 888 491.9;" xml:space="preserve">
<path d="M392.9,294.8c0.4,3.4,3.5,3.4,4.4,3.4s5.7,0.1,5.5-7.9c0-6.9-7.5-7.9-10.3-7.9c-12.9,0.3-24,17.5-23.5,37.5
	c0.4,15.7,7.4,23.1,17.7,22.9c21.1-0.6,27.6-26.7,30.8-36.5c0.1-0.4,0.2-0.8,0.4-1.1l2.1-0.1c0,0.5-0.1,1.3-0.6,2.7
	c-1.7,3.9-7.4,40.4-40.8,41.3c-19.4,0.5-28.1-12.2-28.5-27.5c-0.6-22.2,13.8-41.9,38.3-41.9c9.3,0,15.5,3.6,15.8,10.6
	c0.2,5.2-1.8,9.5-6.6,9.6c-3,0.1-5.6-1.7-5.6-4.7L392.9,294.8L392.9,294.8z"/>
<path d="M580.9,286.6c-0.2,13.4-7.1,25.5-24.7,28.1c-9.2,1.4-14.8-2.8-15.9-10c-0.8-5.4,0-11,0.4-15l-0.3,0
	c-3,19.7-9.2,28.7-22.6,30.7c-10.3,1.6-18.7-3.9-20.3-14.7c-1.7-11,4.8-31.4,3.5-40c-0.6-3.8-2.2-5.5-5.3-5.1
	c-2.1,0.3-3.8,1.7-5,4.2l-1.5-0.4c2.5-6.2,6.7-10,14.1-11.1c10-1.5,16.1,2.4,17.5,11.9c1.5,10.8-5.2,33.1-3.7,42.9
	c0.7,4.7,3.5,6.8,7.5,6.2c7.4-1.1,12.8-11.3,14.5-33.6l2.1-27.9c12.9,0.2,20.2-9.6,20.2-9.6c0.3,1.8-2.1,25.6-3.3,47.4
	c-0.2,4.2-0.5,9.6-0.2,12.2c0.5,3.3,2.3,6.2,5.1,6.3c11.5,0.4,17.1-15.5,16.6-22.8L580.9,286.6L580.9,286.6z"/>
<path d="M648.1,266.3c-3.9,16.6-13.4,33.7-40.8,36.6c-17.8,1.9-29.3-6.9-31-22.7c-2.3-22.2,15.2-45.3,38-47.7
	c10.7-1.1,21.2,2.4,22.2,11.8c1.3,12.2-13.2,21.7-39.7,27.6c0,2,0.1,4.1,0.3,6.1c1.4,13.3,8,19.8,18.1,18.7
	c23.3-2.4,28.5-21.3,32-30.7L648.1,266.3L648.1,266.3z M615.4,260.2c4.7-4.8,6.7-11.2,6-17.3c-0.6-5.9-3.6-8.6-8.2-8.1
	c-9.7,1-16.1,17.5-16.5,34.3C605.3,267,611.5,264.1,615.4,260.2L615.4,260.2z"/>
<path d="M695.2,249.9c-0.6,12.7-4.5,42-32.2,41c-10.2-0.4-16-5.9-17.2-15.9c-0.7-5.9,7.4-97.5,7.4-97.5
	c12.5,0.2,19.8-11.5,19.8-11.5s-7.7,102.8-7.7,106.1c-0.1,9.5,7.5,11.5,10.3,11.2c13.8-1.6,17.5-22.4,17.4-33.7L695.2,249.9
	L695.2,249.9z"/>
<path d="M684.5,221.8c0.4-0.6,0.7-1,1.3-1.7c0.9-1.1,4.3-3.3,7-3.9c10.8-2.3,17.5,2.1,19.2,9.9c2.3,10.7-2.9,36-1.2,43.9
	c0.8,3.9,3.1,5.6,6.3,4.9c12.7-2.8,18.8-37.2,16.1-43.2l2.3-0.5c0.8,12.4-4.9,46.9-24.9,51.2c-10.2,2.2-16.9-1.6-19.1-11.5
	s2.8-35.6,1.2-43.2c-0.5-2.6-1.7-4.9-3.3-6c-1.4-0.9-3.3-0.5-4.2,0.8c0,0,0,0,0,0L684.5,221.8L684.5,221.8z M696.3,182.8
	c6.4-1.4,11.5,1.4,12.8,7.3c1.5,6.8-2.3,12.3-9.3,13.8c-6.1,1.3-11.5-1.4-12.8-7.3C685.6,189.8,689.6,184.2,696.3,182.8z"/>
<path d="M358.2,328.6c-1.7,13.2-15.3,32.2-33.1,33.7c-8.2,0.7-15-3.1-15.7-11.8c-0.1-1.6,0-3.6,0.2-5.3l7.4-46.9
	c3.2,1.2,14.3-2.2,18.1-9.3L328,345c-0.3,2.5-0.6,4.7-0.5,6.5c0.2,2.6,1.5,6.2,5,5.9c9.4-0.8,23.1-18.6,24.6-28.7L358.2,328.6
	L358.2,328.6z"/>
<path d="M314,299.4c-1.9-3-5.6-4.2-9.1-3.5c-11.4,2.1-22.5,15-23.6,42.5c-0.5,11.7,6.2,19.7,14.4,19c5.3-0.4,11.1-3.7,14.2-12.9
	l2.4,0.5c-3.6,10.9-9.9,19.2-21.6,20.2c-13.4,1.1-25.4-8.9-25.6-24.5c-0.5-42.2,33.5-47.6,42.7-46.8c6.2,0.7,10.6,6.4,8.5,12.7
	c-1,2.9-3.8,4.7-6.8,4.7h0c-2.6,0-4.8-2-5-4.6l1.6-0.1c0.1,1.7,1.6,3.1,3.4,3.1h0c3.4-0.3,6-3.3,5.7-6.8
	C315,301.6,314.6,300.5,314,299.4L314,299.4z"/>
<path d="M457.2,265.5c2.2,0.2,4,0.9,5.7,2.1c2,1.5,3.2,3.8,3.5,6.3c0.3,2.1-0.3,4.2-1.6,5.8c-1.3,1.7-3.2,2.7-5.3,3
	c-0.1,0-0.2,0-0.3,0c-2.6,0-4.7-1.9-5-4.4l1.6-0.2c0.2,1.7,1.8,3.1,3.5,2.9c1.6-0.2,3.1-1,4.2-2.4c1-1.3,1.5-3,1.3-4.6
	c-0.2-2.1-1.3-3.9-2.9-5.2c-1.3-1-2.9-1.6-4.5-1.6c-12.4,0.3-24.5,16.7-25,41.3c-0.3,14.5,9,22.3,15.9,21.4
	c5.3-0.6,13.3-6.7,15.6-16.9l1.6,3c-3.2,11-11,19.6-22.7,21c-13.3,1.6-25.7-7.9-26.5-23.5C414.1,271.6,447.9,264,457.2,265.5
	L457.2,265.5z"/>
<path d="M271,193.2c-1,13.3-11.8,35.6-31.3,35.4c-8.3-0.1-15.1-2.3-16.3-11c-0.2-1.6-0.2-3.6-0.1-5.3l4.8-47.2
	c2.5,1.4,14.2-2.9,17.6-10.3l-4,56.4c-0.2,2.5-0.4,4.7-0.1,6.5c0.4,2.6,1.8,5.4,5.3,5.6c12.4,0.7,24.1-23.4,21.8-31.5L271,193.2
	L271,193.2z"/>
<path d="M222.7,164.1c-1.9-1.1-4.2-1.1-6.3-0.5c-11.3,3-21.6,19.5-22.3,41.1c-0.4,11.7,4.9,21.9,15.9,20.6
	c5.5-0.7,10.9-4.3,13.6-13.7l2.4,0.3c-3,11.1-8.8,19.7-20.5,21.3c-13.3,1.8-25.8-7.5-26.9-23.1c-2.8-42.1,29-51.5,40.5-48.8
	c5.5,1.3,9.6,4.8,9.1,10.4c-0.4,3.6-3.2,6.5-6.8,6.8c-0.1,0-0.3,0-0.4,0c-2.5,0-4.7-1.8-5-4.3l1.6-0.2c0.2,1.7,1.8,3,3.6,2.9
	c3.4-0.5,5.8-3.6,5.4-7.1C226.3,167.3,224.7,165.3,222.7,164.1L222.7,164.1z"/>
<path d="M301,210c8.2-9.9,16.7-37.3,16-50.2c-0.3-5-2-8.9-4.7-11.1c-1.5-1.2-3.4-1.9-5.3-1.9c-0.4,0-0.8,0-1.3,0.1
	c-1.3,0.2-3.1,0.9-3.6,5s1.1,8.2,4.5,11.5c2.7,2.6,10.6,6.8,19.5,6.5c7.8-0.2,19.4-7.8,18.5-14.5l1.6-0.2c1,7.6-11.6,16.1-19.9,16.4
	c-10.1,0.3-17.8-4-20.8-6.9c-3.8-3.7-5.5-8.3-5-12.9c0.5-3.8,2.1-6,5-6.4c2.9-0.4,5.6,0.4,7.8,2.2c3.1,2.5,5.2,6.9,5.3,12.3
	c0.3,18.4-10,49.7-21.1,56.9c-13,8.3-30.6,1.1-31.1-13.6c-0.4-10.4,3.9-31.6,2.8-39.9c-0.5-3.9-2.1-5.6-5-5.2
	c-3.3,0.4-5.6,5.6-6.6,15.8l-1.6,0c0.3-13.6,6.1-22.3,16.6-23.7c10-1.4,15.3,4.5,16.4,12.5c1.4,10.5-2.4,30.9-2.1,40.9
	C287.2,215.6,297.2,214.7,301,210L301,210z"/>
<path d="M337.8,266.8c8,2.1,16.4-1.4,20.5-8.5c3.4-5.8,5.3-13,6.4-18.1c4.1-19,8.9-56.9,8.9-56.9c-4.3,12.8-11.1,17.7-21.8,19.2
	c-11.1,1.5-20.2-3.6-21.7-14.6c-1.6-11.6,4.6-31.5,3.4-40.4c-0.5-3.6-4.2-5.7-5.5-5.5s-2,0.8-2,0.8c0.5-2.7,4.3-6.7,9.8-7.5
	c10.2-1.4,16.2,2.6,17.5,12c1.5,11.3-5.1,32.4-3.7,42.4c0.8,5.6,4.4,7.4,8.6,6.8c6.7-0.9,13-7.6,16.1-26.7l5-41.2
	c0,0,12.4,0.8,19.7-10.2c0.5-0.7-6.4,52-11.3,91.6c-4.8,39.1-24.9,59.8-42.7,59.8c-7.3,0-13.3-2.2-17.1-6.3
	c-3.9-4.2-5.3-10.2-4.2-17.6c2.9-18.9,18.8-30.1,91.3-32c42.5-1.1,60.1-29.5,69.5-44.7c3.4-5.6,5.8-9,8.1-10.2c3-1.6,5.3-1.2,7-0.1
	c2.5,1.8,2.6,4.2,2.2,6c-2.3,10.9-15.7,22.1-32.8,21.6c-10.2-0.3-15.8-6.7-17.1-16.2c-1.5-10.8,5.7-32.8,4.4-42.5
	c-0.7-5.1-3.8-7.2-8.2-6.6c-8,1.1-14.4,12-16.5,35.5l-2.5,26.1c-0.2,3.2-3.4,4.6-11.1,5.7c-6.4,0.9-8.3,0.5-8.6-2.2
	c-0.2-1.8,1.8-19.9,3.7-41.6c0.3-4.2,0.5-9.4,0.2-12.2c-0.5-3.3-2-4.7-4.9-4.3c-1.4,0.2-2.8,1.1-3.9,2.9l-1.1-0.3
	c1.3-5.9,6.5-9.3,12.7-10.2c9.5-1.3,13.8,3.1,14.8,10.5c0.7,5.4-0.2,11-0.7,14.8l0.5-0.1c3.3-19.8,9.8-28.6,24.2-30.5
	c10.8-1.5,19.6,4,21,14.7c1.6,11.5-6.3,34.3-5.1,43c0.5,3.9,1.9,7.5,5.7,7.9c14.4,1.5,21.4-9.3,23-16.1c0.3-1.1,0.1-3.2-1.2-4.1
	c-1.3-0.9-3.3-0.9-4.9,0.3s-4.1,4.5-7.1,9.4c-9.7,15.6-27.7,44.6-71.3,45.8c-71,1.8-86.5,12.4-89.2,30.2c-1,6.8,0.2,12.1,3.6,15.8
	C331.4,264.3,334.3,265.9,337.8,266.8L337.8,266.8z"/>
<path d="M296.2,436.7c-0.7,5.7,0.9,11.3,4.5,15.7c4.3,5.4,11.2,8.7,19.4,9.4c45.8,4,93.4-28,128.3-51.3
	c24.1-16.1,41.5-27.8,48.5-20.9c2.9,2.9,3.3,6.5,1,9.7c-2.8,4-9.9,6.6-16.9,6.3c-12.3,0.2-22.8-7.1-22.8-22.7l0,0l8.9-119.2
	c5.5,0.4,14.1-3.2,17.4-10.6l-7.2,136.5c-0.2,3.9-0.4,7.1-0.1,9.2c0.1,0.5,0.2,0.9,0.5,1.3c1.3,2.5,4.1,3.6,6.9,3.3
	c5.4-0.6,10.1-2.6,12-5.2c1.8-2.5,1.5-5.2-0.8-7.6c-6-6-23.9,5.9-46.5,21c-33,22.1-77.5,51.9-121.2,51.9c-2.7,0-5.4-0.1-8.1-0.4
	c-8.6-0.8-15.9-4.3-20.5-10c-3.9-4.8-5.6-10.8-4.8-16.9c1.5-11.8,11.5-22.2,27.5-28.5c33.9-13.3,147.3,13.1,189.8,50.3
	c9.7,8.5,10.2,18.8,5.6,24.6c-1.8,2.4-4.7,4.1-8,4.1c-2,0-4.3-0.6-6.5-2.2c-7.7-5.3-7.6-10.2-7.4-11.6c0.3-1.7,1.4-3.1,2.7-3.5
	c1.6-0.4,3.4,0.5,4.6,2.4c2.4,3.8,1.6,12.4-2.7,16.9c-1.8,1.9-4,2.8-6.4,2.8c-1.9,0-3.9-0.6-6-1.7c-5.1-2.8-7.6-8.8-7.2-16.9
	c1.5-25.4,32.1-72.6,95.5-98c39.3-15.8,83.8-31.4,112.8-16.8c7.5,3.9,11.6,12.7,9.7,21c-3.3,14.3-21.7,23.1-49.2,23.4
	c-1.7,0-3.5,0-5.2,0c-51.8,0-93-8.5-113.6-23.7c-5.8-4.3-10.5-11.4-11.9-18.1c-0.8-3.7-0.5-9.3,2.7-14.1c2.6-4,6.5-6.5,11.7-7.6
	c5.3-1.1,10.2,0.4,13.5,4.1c3.1,3.5,4.3,8.4,2.9,12.5c-1.2,3.7-4.3,6.1-8.6,7c-2.1,0.4-4.1-0.3-5.4-1.7c-1-1.2-2.4-3.6-0.4-7
	c1.1-1.8,2.8-2.6,5-2.4l-0.2,1.6c-1.6-0.1-2.8,0.4-3.5,1.6c-1.1,1.9-1,3.6,0.2,5.1c0.9,1,2.4,1.5,3.9,1.2c3.7-0.7,6.3-2.8,7.4-5.9
	c1.2-3.5,0.2-7.8-2.5-10.9c-1.7-1.9-5.5-4.9-11.9-3.6c-4.7,1-8.3,3.3-10.7,6.9c-2.9,4.4-3.1,9.6-2.4,12.9
	c1.3,6.3,5.9,13.2,11.3,17.2c21,15.4,63.9,24,117.8,23.3c26.7-0.3,44.5-8.5,47.6-22.1c1.8-7.6-2-15.6-8.9-19.2
	c-28.5-14.3-72.5,1.2-111.5,16.8c-62.8,25.2-93,71.7-94.5,96.6c-0.4,7.6,1.8,12.9,6.3,15.4c4.2,2.3,7.8,2,10.5-0.8
	c3.7-3.9,4.5-11.7,2.5-15c-0.8-1.3-1.8-1.9-2.7-1.7c-0.8,0.2-1.4,1.1-1.6,2.2c-0.4,2.4,1.2,6.3,6.7,10c4.5,3,9.3,2.4,12.4-1.6
	c4-5.2,3.5-14.6-5.4-22.4c-45-39.4-157.5-62.1-188.2-50C307.3,415.5,297.6,425.5,296.2,436.7"/>
<path d="M604.6,123.7c39-14.9,45.2-25.5,43.8-33.8c-1-6.3-9-10.5-17.3-9.2c-5.5,0.9-10.3,3.3-13.7,6.8c-3.2,3.4-4.7,7.4-4,11.4
	c0.7,4,3.4,5.8,7.6,5.2l0.3,1.6c-5,0.8-8.7-1.7-9.5-6.5c-0.7-4.4,0.8-9,4.4-12.7c3.6-3.7,8.7-6.3,14.6-7.3c9.2-1.5,18,3.3,19.2,10.5
	c2,11.9-8.9,21.4-38.5,33.2L604.6,123.7L604.6,123.7z"/>
<path d="M885.7,182.1c-4.3-9.4-15.8-20.6-38.9-20.6c-18.1,0-28.2,8-42.3,14.3c-16.1,7.2-31.4,14-60,12.7c-8.2-0.4-14.5-2.7-17.4-6.4
	c-1.7-2.2-2.2-4.9-1.5-8.1c1.4-6.3,6.4-7.8,10.3-7.1c3.6,0.6,7,3.2,6.6,6.9l1.5,0.2c0.6-4.6-3.5-7.8-7.8-8.5
	c-4.9-0.8-10.5,1.4-12,8.2c-0.8,3.6-0.2,6.7,1.8,9.3c3.1,4.1,9.9,6.6,18.5,7c29,1.3,44.3-5.6,60.7-12.9c14.1-6.3,23-13.7,41.8-14.1
	c15.5-0.3,31.6,6.9,37.4,19.8c8.5,18.8-9.4,72.8-47,75.3c-10,0.7-16.3-6-17.2-19.2c-0.1-2-0.1-4.1-0.1-6.1
	c26.4-4.9,41-13.7,40.2-25.8c-0.6-9.3-10.9-13.2-21.5-12.5c-22.5,1.5-40.7,23.7-39.2,45.7c1,15.6,12.1,24.7,29.7,23.6
	C879.3,260.5,894.4,201.5,885.7,182.1L885.7,182.1z M837.8,196.7c4.6-0.3,7.4,2.5,7.8,8.3c0.4,6-1.8,12.2-6.6,16.8
	c-4,3.7-10.2,6.4-18.8,8.1C821.3,213.4,828.2,197.4,837.8,196.7L837.8,196.7z"/>
<path d="M182.8,460.5c-20.5,0-47.3-4.9-49.4-32.5c-2-25.4,24.8-57.3,103.4-47.5c21.1,3.7,37.7,12.7,53.8,21.4
	c21.9,11.8,42.6,23,73.8,22.1c27.4-0.7,52.1-10.7,65.9-26.8c7.6-8.8,11.1-18.6,10-27.8c-0.9-7-4.6-11.6-10.4-12.7
	c-6.1-1.1-12.7,2.1-15.7,7.8c-2,3.8-1.7,8.3,0.8,11.3c1.4,1.6,3.1,2.6,5.3,3c2.6,0.4,5.2-0.6,6.5-2.6c0.6-0.9,1.1-2.3,0.8-3.7
	c-0.3-1.1-1.1-2-2.4-2.7l0.8-1.4c1.7,0.9,2.8,2.2,3.1,3.8c0.6,2.4-0.6,4.4-1,5c-1.7,2.5-4.9,3.8-8.1,3.3c-2.5-0.4-4.6-1.6-6.3-3.5
	c-3-3.5-3.3-8.7-1-13.1c3.3-6.2,10.6-9.8,17.4-8.6c6.5,1.2,10.7,6.3,11.7,14.1c1.2,9.6-2.5,19.9-10.4,29
	c-14.1,16.4-39.2,26.6-67.1,27.3c-1.1,0-2.1,0-3.2,0c-29.9,0-51-11.4-71.4-22.4c-16-8.6-32.5-17.5-53.3-21.2
	c-56.9-5.9-84.6,7.1-86.4,40.7c-1.2,21.7,13.8,31.6,25.2,33.9c5.1,1,12.1,0.9,16.8-1.2c7.7-3.4,16.1-7.9,23.4-30.7
	c5.4-16.8,17.8-118.1,21.1-146.4c3.2-30.4,25.4-34.7,33-34.7c17.5,0.1-1.8,33.4-21.8,53.6c-18.4,18.6-38.3,32.2-58.6,38.1
	c-8.2,2.4-17.7,3.4-25.5,3.4c-17.3,0-33.5-5.8-48.5-17.3c-22.4-17.3-35.9-18.6-43.3-16.6c-3.2,0.9-6,3-8.1,5.6
	c-1.5,1.8-2.5,4-2.9,6.2c-0.5,3,0.1,5,1.1,5.8c1.2,0.9,2.8,0.5,3.4-0.6c0.8-1.5,0.1-4-2.3-5.5c-2.5-1.5-7.5-1.4-11.1,1.1
	c-2.2,1.5-5.3,5.2-4.4,10.5c1.1,6.3,5.3,9.8,10.5,11c5.6,1.4,12-1.1,15.8-6.1c4.9-6.5,4.6-15.9-0.8-25.7c-3.4-6-7.7-9.6-12.1-11.6
	c-8.9-4-19.2-1.9-25.8,5.4c-16,17.8-11.3,58.8,14.4,63c84.6,13.9,50.5-192.5,105.3-192.5c13.5,0,16.1,13.5,16.1,23.9
	c0,19.5-18,50.8-55,50.2c-35.7,0-59.1-17.3-59.1-51.6c0-52.4,44.8-92.7,90.8-89.3c11,0.5,20.4,10.2,20.4,21.3s-9,20.2-20,20.8
	c-10.4,0-15.5-3.9-15.8-11.5c-0.1-2.8,1.3-6.7,4.5-9.1c2.2-1.6,5.9-3.1,11.7-1c3.3,1.2,5.6,3.5,6.1,6.2c0.3,1.7-0.1,3.2-1.2,4.1
	c-1,0.9-2.4,1-3.9,0.5c-1.6-0.6-2.8-2.8-3.5-5.6c-0.8-3.2-0.7-6.5,0.1-9.7c3.2-12,17.4-39.9,79.9-50.6c40.4-6.9,55.4,3,60.7,9.6
	c4.5,5.5,5.5,12.7,2.8,19.6c-3.4,8.7-12,15.2-21.8,16.5c-32.8,4.6-61.2-10.3-88.7-24.8c0,0-31.2-16.1-45.2-20.6
	c-38.6-12.3-73.7-10-99,6.5C16.1,89.1,4.1,108.5,1.9,130.1c-2.6,24.9,16.8,51.2,44.2,59.9c27.2,8.6,52.8-2.7,68.3-30.3
	c12.8-22.8,8.1-38.8,1.8-48.1c-9.4-14.1-28.7-22.5-46.9-20.4c-14,1.6-24.5,9.3-28.9,21.1c-2.4,6.3-0.9,12.9,3.6,16.7
	c3.8,3.1,11,2.1,12.9,0.9c0.3-0.2,5.3-3.4,3.9-7.6c-0.6-1.8-1.6-3-3-3.7c-1.7-0.8-3.9-0.6-6.5,0.4l-0.6-1.5c3-1.2,5.7-1.3,7.8-0.4
	c1.8,0.8,3.1,2.4,3.9,4.6c1.8,5.3-3.3,8.7-4.6,9.5c-3.2,1.9-10.5,2.5-14.8-1.1c-5.1-4.3-6.7-11.5-4.1-18.5
	c4.6-12.4,15.7-20.4,30.3-22.1c18.8-2.2,38.7,6.5,48.4,21.1c9.2,13.8,8.5,31.5-1.8,49.8c-12.4,22.1-31.1,34-51.9,34
	c-6,0-12.1-1-18.3-2.9c-28.1-8.9-48-36-45.3-61.7c2.3-22.1,14.5-42,33.5-54.4c25.7-16.8,61.4-19.2,100.4-6.7
	c14.1,4.5,45.4,20.7,45.4,20.7c28.5,15,55.4,29.1,87.7,24.6c9.3-1.3,17.4-7.4,20.5-15.5c2.5-6.3,1.6-12.9-2.6-18
	c-5.1-6.3-19.6-15.8-59.2-9c-62.2,10.7-75.8,38.2-78.7,49.6c-0.8,3-0.8,6.1,0,9.1c0.6,2.2,1.5,3.8,2.4,4.1c1,0.4,1.8,0.3,2.3-0.2
	c0.6-0.5,0.9-1.5,0.7-2.6c-0.4-2.2-2.3-4-5-5c-4-1.4-7.6-1.1-10.2,0.8c-2.8,2-3.9,5.3-3.9,7.7c0.2,6.7,4.9,9.9,14.3,9.9
	c10.1-0.5,18.2-8.9,18.2-19.2s-8.7-18.7-18.9-19.3c-41.8,0-63.7,44.9-63.7,80.9c0,17.7,3.1,54.6,33.3,54.6c32.7,0,51-24.1,51-47.7
	c0-7.9-3.6-17.4-10.9-14.3c-28.4,11.7,1.8,194.2-107,187.2c-13.4-0.9-44.8-9.3-42-41.6c2.5-28.4,29.9-34.4,39.7-34.6
	c8.1-0.6,19.2,2.2,26.5,15.2c5.8,10.4,6.1,20.4,0.7,27.5c-3.4,4.5-8.7,7.1-13.9,7.1c-1.2,0-2.3-0.1-3.5-0.4
	c-5.8-1.4-10.5-5.4-11.7-12.3c-0.9-4.8,1.4-9.6,5.1-12.1c3.8-2.6,9.6-3.2,12.9-1.2c3.3,2,4.1,5.5,2.9,7.7c-0.8,1.5-2.7,2.9-5.5,1.3
	c-1.2-0.7-2-2.5-2.2-4.8c-0.2-3.2,0.9-6.4,2.9-9c2.4-3.2,5.8-5.9,9.5-6.9c7.7-2.1,21.7-0.8,44.7,16.9c14.2,11,65.5,41.6,130.5-24
	c20.6-20.8,30.1-43,27.3-47.2c-0.6-1-2.1-1.7-4-1.2c-2.8,0.8-9.6,6.2-12.6,34l-15.1,125C235.5,445.9,202.8,460.5,182.8,460.5
	L182.8,460.5z"/>
<path d="M607.1,65.6c0,7.8-6.3,14.1-14.1,14.1c-5.2,0-9.4-4.2-9.4-9.4s4.2-9.4,9.4-9.4s9.4,4.2,9.4,9.4h-1.6c0-4.3-3.5-7.8-7.8-7.8
	s-7.8,3.5-7.8,7.8s3.5,7.8,7.8,7.8c6.9,0,12.5-5.6,12.5-12.5c-0.5-11.8-11.1-16.2-22.4-16c-15.1,0.3-28.4,16.9-24,37.4
	c1.1,5,4.1,13.6,15.5,20c12.7,7.1,18.7,3.4,19.9,2.5c1-0.7,1.6-1.7,1.4-2.7c-0.2-0.8-1-1.7-1.8-2.1c-1.2-0.5-3.7-0.7-6.3,0.1
	c-14.3,4.2-26.5,14.5-33.9,27.4c-5.4,9.3-8.3,20.1-6.6,30.9c3.9,23.9,20.4,34.2,43.2,30.8c33.2-5,46.9-29.1,43.7-51.2
	c-2.1-14.4-14.2-19.2-25.1-18.2c-5.8,0.5-10.5,5.1-10.4,10.9c0.1,7.7,8.1,9.8,12.7,10.3c22.5,2.8,50.6-12.1,69.9-37.2
	c17-22.1,22.6-46.8,14.9-66C688.3,23,673.6,9.4,654.9,4.1c-27-7.6-60.7,2.3-94.8,27.8c-4.4,3.3-8.7,6.7-12.9,10
	c-30.2,23.8-60,45.7-121.3,38.4c-16.8-2-44.4-19.1-46.7-36.5c-0.8-6,2.7-12.6,10.9-13.8c2.9-0.4,5.7,0.4,8.1,2.5
	c1.4,1.3,2.4,2.5,2.4,2.5c2,2.5,3.4,5.6,3.9,9.1c0.3,2.2-0.8,4.2-2.7,4.9c-1.2,0.5-2.6,0.3-3.7-0.4c-1.1-0.7-1.8-1.8-2-3.1
	c-0.8-5.8,1.9-16.6,10.1-17.7c4.2-0.6,7.7,0.3,10.2,2.6c2.1,1.9,3.5,4.6,3.9,7.8c1.4,7.3-5.6,19.6-17.2,32.2
	c-23.3,23.9-62.3,36-96.2,35.5c-15.6,0-31-4.2-40.7-15.3c-7.6-8.6-9.7-21-4.2-32.6c5.8-12.1,18.1-19.5,30.7-18.4
	c5,0.9,9.7,2.1,13.8,6.1c4.1,4,5.5,9.7,3.7,14.6c-1.2,3.3-4.8,5.2-9.1,5c-2.1-0.1-4-1.3-5.1-3.3c-1-2-1-4.2,0.1-6.1l0.1-0.2l1.4,0.9
	c-0.9,1.5-0.9,3.2-0.1,4.6c0.8,1.4,2.1,2.3,3.7,2.4c3.6,0.2,6.5-1.3,7.5-4c1.6-4.2,0.3-9.3-3.3-12.8c-3.7-3.6-8.2-4.7-12.9-5.6
	c-11.9-1-23.5,6-29,17.5c-5.2,10.9-2.9,22,4.6,31c22.8,27.1,99.8,14.4,133.8-20.5c11.1-12,18-24.1,16.8-30.8
	c-0.4-2.8-1.6-5.2-3.4-6.8c-2.2-2-5.2-2.7-8.9-2.2c-7,1-9.4,10.9-8.7,15.9c0.1,0.8,0.6,1.5,1.2,1.9c0.7,0.4,1.5,0.5,2.3,0.2
	c1.2-0.4,1.9-1.7,1.7-3.1c-0.5-3.2-1.7-6-3.6-8.3c-0.8-1.1-2.1-2.3-2.1-2.3c-2.1-1.8-4.4-2.5-6.9-2.1c-7.2,1-10.2,6.8-9.5,12
	c2.3,16.7,29,33.2,45.3,35.1c60.6,7.2,90.2-14.4,120.1-38c4.2-3.3,8.5-6.7,12.9-10c34.5-25.8,68.7-35.8,96.2-28.1
	c19.3,5.4,34.3,19.4,42.3,39.3c7.9,19.7,2.2,45-15.2,67.6c-18.1,23.5-43.8,38.2-65.7,38.2c-1.9,0-3.8-0.1-5.7-0.4
	c-4.7-0.6-12.7-2.7-13.9-10.1c-1.1-6.7,3.5-13.1,10.2-14.2c12.3-1.6,26.8,3.9,29.4,20.3c3.7,23.7-12.3,51.6-45.9,56.8
	c-37.2,5.8-64.1-7.3-67-31.9c-3.4-28.5,19.7-49.3,48.9-60.8c0-0.1,16.3-6.4,21.9-3.9c1.5,0.7,2.7,1.5,2.9,2.9c0.3,1.6-0.5,3.3-2,4.4
	c-0.9,0.6-3.9,2-6.8,2c-3.4,0-4.8,0.3-17.4-2.9s-26.5-14.7-28.9-29C539,60.7,557,49.4,575.2,47C594.6,44.5,606.4,52.5,607.1,65.6
	L607.1,65.6z"/>
<path d="M653.6,346.5c-0.4-2-1.4-4.5-3-5.8c-2.2-1.8-5-2-7.1-1.6c-1.8,0.3-3.2,1.7-3.9,2.7c-0.7,1-1,2.3-0.8,3.6
	c0.5,2.6,3,4.3,5.6,3.9l0.3,1.6c-0.4,0.1-0.8,0.1-1.1,0.1c-3,0-5.8-2.2-6.3-5.3c-0.6-3.5,2.5-7.5,6-8.2c2.5-0.4,5.5-0.1,8.3,1.9
	c2,1.5,3.2,4.4,3.7,6.9c1.3,9.7-2.6,17.5-7.8,23.4c-5.2,6-13.6,9.4-23,9.4c-7.2,0-13.5-2.8-17.7-8c-4.9-6-6.5-14.2-4.7-23.4
	c2.8-13.8,13.3-25,29.7-31.6c20.3-8.2,48-9,82.5-2.6c57.1,10.7,73.9-14.6,83.9-29.8c3.4-5.1,6-9.1,9.3-10.5c2.8-1.2,4.9-1.2,6.2-0.1
	c1.3,1.1,1.7,3.1,1.6,4.5c-0.9,12.1-19.3,16.9-27.6,15.4c-11.6-2.1-17.8-11.2-18.2-22.5c-0.6-17.3,9.1-42,6.1-54.9
	c-1.2-5-6.3-7.3-10.8-6.7c-8,1.1-14.4,12-16.5,35.5l-2.5,26c-0.2,3.2-3.4,4.6-11.1,5.7c-6.4,0.9-8.3,0.5-8.6-2.2
	c-0.2-1.8,1.8-19.9,3.7-41.6c0.3-4.2,0.5-9.4,0.2-12.2c-0.5-3.3-2-4.7-4.9-4.3c-1.4,0.2-2.8,1.1-3.9,2.9l-1.1-0.3
	c1.3-5.9,6.5-9.3,12.7-10.2c9.5-1.3,13.8,3.1,14.8,10.5c0.7,5.4-0.2,11-0.7,14.8l0.5-0.1c3.3-19.8,9.8-28.6,24.2-30.5
	c10.8-1.5,19.6,4,21,14.7c1.6,11.5-6.2,45.2-6,54c0.1,6.1,3.2,13.3,8.3,14.2c11.5,2.2,17.3-2.8,18.3-7.9c0.1-1.1,0.2-2.8-0.7-3.5
	c-1-0.9-3.1-0.3-4.6,0.3c-2.8,1.2-5.4,5-8.6,9.9c-10.2,15.5-27.4,41.4-85.5,30.5c-46.1-8.6-99.5-6.2-110.3,32.9
	c-1.8,8.6-0.2,16.5,4.3,22c3.9,4.8,9.7,7.4,16.4,7.4c8.9,0,16.8-3.2,21.8-8.8C651.1,363,654.9,355.8,653.6,346.5L653.6,346.5z"/>
</svg>
