<?xml version="1.0" encoding="UTF-8"?>
<svg id="Layer_2" data-name="Layer 2" xmlns="http://www.w3.org/2000/svg" viewBox="0 0 888 491.92">
  <path d="M392.85,294.8c.41,3.41,3.52,3.43,4.37,3.4s5.66,.07,5.45-7.94c0-6.93-7.46-7.93-10.26-7.85-12.9,.34-24.03,17.52-23.49,37.53,.42,15.71,7.41,23.14,17.66,22.87,21.06-.56,27.63-26.7,30.84-36.55,.13-.44,.24-.79,.35-1.07l2.1-.15c.01,.5-.13,1.33-.59,2.66-1.72,3.91-7.42,40.39-40.81,41.29-19.35,.52-28.14-12.16-28.55-27.54-.59-22.16,13.8-41.9,38.28-41.9,9.32,0,15.53,3.63,15.8,10.6,.23,5.23-1.81,9.48-6.63,9.61-3.03,.08-5.56-1.67-5.64-4.69l1.13-.27Z"/>
  <path d="M580.91,286.56c-.15,13.41-7.1,25.47-24.74,28.14-9.16,1.38-14.81-2.78-15.9-9.98-.82-5.4,0-11.04,.42-14.96l-.33,.05c-3.05,19.7-9.22,28.67-22.64,30.69-10.31,1.56-18.66-3.87-20.29-14.67-1.66-10.96,4.8-31.35,3.49-40.02-.57-3.76-2.17-5.53-5.28-5.06-2.13,.32-3.82,1.71-5.05,4.22l-1.5-.41c2.53-6.18,6.69-10.03,14.14-11.15,9.98-1.51,16.09,2.42,17.53,11.91,1.47,10.82-5.21,33.08-3.73,42.9,.72,4.74,3.54,6.83,7.47,6.23,7.36-1.11,12.85-11.31,14.49-33.65l2.14-27.93c12.92,.23,20.24-9.64,20.24-9.64,.27,1.8-2.09,25.64-3.32,47.41-.2,4.21-.55,9.62-.16,12.24,.49,3.27,2.33,6.25,5.14,6.33,11.48,.36,17.09-15.52,16.62-22.81l1.26,.15Z"/>
  <path d="M648.08,266.33c-3.9,16.6-13.4,33.74-40.85,36.6-17.77,1.85-29.33-6.93-30.97-22.72-2.31-22.21,15.24-45.33,37.95-47.7,10.7-1.11,21.22,2.45,22.19,11.83,1.27,12.18-13.21,21.67-39.71,27.59,.04,1.99,.1,4.15,.3,6.12,1.39,13.33,8.05,19.79,18.09,18.74,23.29-2.43,28.45-21.32,31.97-30.67l1.03,.22Zm-32.66-6.17c4.66-4.81,6.65-11.17,6.02-17.26-.62-5.92-3.56-8.61-8.17-8.13-9.71,1.01-16.14,17.48-16.55,34.33,8.6-2.06,14.78-5.03,18.7-8.93Z"/>
  <path d="M695.21,249.87c-.64,12.74-4.5,41.95-32.25,40.96-10.25-.36-16.04-5.88-17.24-15.9-.71-5.91,7.38-97.5,7.38-97.5,12.53,.18,19.82-11.46,19.82-11.46,0,0-7.68,102.8-7.71,106.11-.07,9.48,7.49,11.53,10.28,11.21,13.84-1.6,17.5-22.41,17.41-33.73l2.29,.3Z"/>
  <path d="M684.55,221.76c.37-.57,.7-.99,1.31-1.73,.92-1.11,4.27-3.33,7.04-3.92,10.83-2.34,17.55,2.13,19.23,9.9,2.3,10.67-2.89,36-1.18,43.92,.84,3.88,3.07,5.6,6.31,4.9,12.74-2.75,18.8-37.17,16.14-43.23l2.26-.49c.8,12.35-4.92,46.9-24.91,51.22-10.19,2.2-16.93-1.59-19.06-11.46-2.13-9.87,2.8-35.64,1.16-43.24-.55-2.56-1.65-4.88-3.27-5.97-1.37-.92-3.3-.53-4.21,.84,0,0-.01,.02-.02,.03l-.81-.77Zm11.74-38.98c6.41-1.38,11.54,1.44,12.8,7.29,1.47,6.82-2.3,12.3-9.26,13.81-6.13,1.32-11.54-1.44-12.8-7.29-1.47-6.83,2.58-12.36,9.26-13.81Z"/>
  <path d="M358.23,328.63c-1.74,13.25-15.27,32.24-33.15,33.69-8.25,.67-14.97-3.1-15.68-11.84-.13-1.65,.03-3.65,.23-5.33l7.39-46.92c3.21,1.17,14.3-2.18,18.1-9.32l-7.08,56.07c-.29,2.51-.61,4.7-.46,6.51,.21,2.64,1.51,6.16,4.99,5.88,9.43-.77,23.15-18.58,24.65-28.66l1.01-.08Z"/>
  <path d="M313.98,299.43c-1.89-3.02-5.63-4.17-9.13-3.53-11.39,2.07-22.49,14.97-23.56,42.47-.46,11.74,6.19,19.68,14.39,19.02,5.31-.43,11.08-3.69,14.25-12.93l2.36,.47c-3.59,10.92-9.89,19.23-21.6,20.18-13.36,1.09-25.37-8.93-25.56-24.48-.51-42.23,33.55-47.63,42.7-46.75,6.22,.67,10.56,6.44,8.45,12.71-.96,2.87-3.78,4.71-6.81,4.71h-.05c-2.65,0-4.84-1.99-5.05-4.56l1.62-.13c.14,1.73,1.62,3.07,3.38,3.07h.03c3.42-.28,6.02-3.33,5.74-6.78-.1-1.26-.52-2.44-1.17-3.48Z"/>
  <path d="M457.19,265.46c2.18,.18,4.05,.87,5.68,2.15,1.98,1.55,3.23,3.77,3.53,6.27,.26,2.1-.33,4.17-1.64,5.84-1.31,1.66-3.19,2.72-5.3,2.98-.09,0-.18,0-.26,0-2.56,0-4.71-1.87-5.01-4.36l1.61-.19c.21,1.74,1.81,3.06,3.53,2.94,1.62-.2,3.12-1.04,4.16-2.36,1.05-1.33,1.51-2.98,1.31-4.64-.25-2.06-1.29-3.9-2.92-5.19-1.3-1.02-2.85-1.58-4.47-1.64-12.39,.28-24.51,16.74-25.01,41.31-.3,14.5,9,22.27,15.9,21.44,5.29-.64,13.29-6.69,15.63-16.86l1.58,3.05c-3.16,11.05-11,19.61-22.66,21.02-13.3,1.62-25.71-7.91-26.51-23.45-2.19-42.18,31.55-49.75,40.87-48.29Z"/>
  <path d="M271.04,193.17c-1.03,13.33-11.78,35.58-31.28,35.43-8.27-.06-15.11-2.28-16.3-10.97-.22-1.64-.16-3.65-.06-5.34l4.84-47.25c2.46,1.39,14.16-2.95,17.57-10.29l-4.04,56.37c-.16,2.53-.36,4.72-.11,6.53,.36,2.62,1.82,5.4,5.3,5.6,12.4,.7,24.08-23.39,21.75-31.5l2.33,1.41Z"/>
  <path d="M222.69,164.12c-1.9-1.07-4.18-1.11-6.28-.54-11.31,3.04-21.57,19.53-22.26,41.08-.38,11.74,4.91,21.95,15.93,20.6,5.47-.67,10.92-4.27,13.59-13.67l2.39,.34c-3,11.1-8.83,19.74-20.47,21.32-13.28,1.81-25.82-7.54-26.85-23.06-2.79-42.14,28.99-51.51,40.49-48.81,5.51,1.3,9.6,4.75,9.05,10.37-.35,3.55-3.23,6.46-6.79,6.76-.14,.01-.27,.02-.41,.02-2.52,0-4.66-1.83-5-4.29l1.6-.22c.24,1.73,1.82,2.97,3.57,2.88,3.4-.47,5.84-3.65,5.37-7.09-.34-2.48-1.88-4.53-3.95-5.69Z"/>
  <path d="M301.05,210.03c8.16-9.85,16.68-37.3,15.96-50.23-.28-4.98-2.02-8.94-4.73-11.15-1.53-1.25-3.35-1.89-5.31-1.89-.42,0-.84,.03-1.26,.09-1.31,.18-3.11,.89-3.61,4.96-.5,4.07,1.11,8.16,4.52,11.52,2.69,2.65,10.6,6.75,19.45,6.5,7.75-.22,19.42-7.78,18.51-14.52l1.6-.22c1.04,7.63-11.61,16.07-19.89,16.35-10.08,.33-17.83-4.01-20.81-6.95-3.78-3.72-5.55-8.29-4.99-12.87,.47-3.84,2.15-5.98,5-6.37,2.9-.39,5.6,.35,7.81,2.16,3.06,2.5,5.24,6.85,5.32,12.29,.29,18.43-9.97,49.73-21.1,56.87-12.95,8.31-30.64,1.09-31.14-13.58-.36-10.42,3.88-31.58,2.75-39.94-.54-3.93-2.09-5.56-5.04-5.16-3.28,.45-5.64,5.63-6.6,15.78l-1.62,.03c.32-13.57,6.15-22.26,16.65-23.69,10-1.36,15.32,4.48,16.42,12.51,1.43,10.49-2.41,30.94-2.12,40.86,.35,12.2,10.41,11.29,14.24,6.66Z"/>
  <path d="M337.79,266.81c7.95,2.1,16.39-1.37,20.53-8.48,3.37-5.8,5.34-13.01,6.44-18.11,4.12-18.96,8.91-56.9,8.91-56.9-4.27,12.77-11.12,17.71-21.77,19.16-11.15,1.52-20.19-3.6-21.69-14.58-1.58-11.64,4.56-31.51,3.36-40.36-.49-3.61-4.16-5.67-5.47-5.49s-2.02,.79-2.02,.79c.54-2.69,4.31-6.72,9.82-7.47,10.16-1.38,16.24,2.63,17.51,11.98,1.54,11.31-5.11,32.42-3.74,42.42,.76,5.57,4.35,7.42,8.61,6.84,6.72-.91,12.99-7.61,16.07-26.73l4.96-41.19s12.37,.76,19.68-10.22c.46-.69-6.42,51.99-11.33,91.62-4.84,39.05-24.9,59.77-42.74,59.77-7.3,0-13.31-2.2-17.13-6.33-3.92-4.23-5.33-10.17-4.18-17.64,2.9-18.87,18.77-30.15,91.31-32.01,42.48-1.09,60.09-29.48,69.55-44.74,3.44-5.55,5.81-9,8.11-10.2,2.95-1.56,5.32-1.25,6.98-.05,2.5,1.81,2.57,4.21,2.19,6-2.27,10.87-15.7,22.07-32.84,21.57-10.25-.3-15.81-6.72-17.1-16.23-1.47-10.82,5.72-32.84,4.4-42.51-.69-5.08-3.81-7.16-8.24-6.56-8.03,1.09-14.4,11.98-16.54,35.48l-2.47,26.05c-.23,3.2-3.38,4.64-11.08,5.68-6.39,.87-8.29,.46-8.64-2.16-.25-1.8,1.79-19.95,3.69-41.58,.26-4.21,.55-9.42,.17-12.21-.45-3.28-1.98-4.74-4.93-4.34-1.43,.19-2.76,1.15-3.87,2.91l-1.07-.32c1.34-5.95,6.54-9.32,12.74-10.16,9.51-1.29,13.81,3.13,14.81,10.51,.74,5.41-.17,11.04-.66,14.78l.49-.07c3.31-19.82,9.81-28.55,24.23-30.51,10.82-1.47,19.58,4.01,21.03,14.67,1.56,11.47-6.32,34.27-5.14,42.96,.54,3.93,1.94,7.54,5.74,7.94,14.38,1.49,21.39-9.26,22.99-16.06,.33-1.12,.09-3.17-1.18-4.09-1.26-.91-3.33-.85-4.88,.3s-4.11,4.53-7.1,9.35c-9.68,15.6-27.68,44.64-71.33,45.76-71.03,1.82-86.5,12.44-89.23,30.18-1.04,6.78,.18,12.11,3.63,15.84,2.07,2.23,4.96,3.84,8.41,4.75Z"/>
  <path d="M296.23,436.67c-.71,5.69,.87,11.28,4.46,15.72,4.32,5.35,11.2,8.68,19.36,9.4,45.76,4.02,93.44-27.96,128.29-51.3,24.12-16.15,41.54-27.82,48.52-20.85,2.93,2.93,3.29,6.45,.99,9.66-2.84,3.96-9.89,6.57-16.86,6.34-12.34,.17-22.81-7.09-22.81-22.72h0l8.93-119.24c5.55,.37,14.11-3.17,17.41-10.56l-7.19,136.54c-.25,3.89-.43,7.09-.11,9.22,.07,.45,.23,.88,.45,1.3,1.3,2.45,4.14,3.63,6.9,3.34,5.37-.56,10.13-2.62,11.96-5.16,1.82-2.53,1.53-5.22-.82-7.56-6.02-6.04-23.88,5.92-46.47,21.05-33.01,22.11-77.52,51.92-121.25,51.92-2.7,0-5.39-.11-8.08-.35-8.61-.75-15.88-4.3-20.48-10-3.87-4.79-5.58-10.81-4.81-16.94,1.48-11.83,11.48-22.23,27.45-28.52,33.87-13.34,147.3,13.09,189.84,50.33,9.66,8.46,10.16,18.79,5.65,24.63-1.84,2.39-4.72,4.1-8.04,4.1-2.05,0-4.26-.65-6.52-2.18-7.74-5.26-7.62-10.23-7.39-11.62,.28-1.73,1.35-3.06,2.74-3.46,1.64-.43,3.37,.45,4.58,2.39,2.38,3.82,1.61,12.39-2.68,16.94-1.78,1.89-3.96,2.84-6.39,2.84-1.88,0-3.91-.57-6.03-1.72-5.1-2.77-7.65-8.78-7.18-16.93,1.47-25.38,32.06-72.58,95.47-98.04,39.32-15.79,83.77-31.38,112.85-16.76,7.52,3.85,11.64,12.67,9.72,20.97-3.32,14.33-21.71,23.07-49.2,23.36-1.73,.02-3.45,.03-5.16,.03-51.81,0-93.03-8.55-113.6-23.66-5.8-4.26-10.47-11.38-11.9-18.14-.78-3.68-.49-9.33,2.65-14.14,2.58-3.96,6.52-6.52,11.69-7.6,5.27-1.1,10.18,.39,13.46,4.09,3.13,3.52,4.26,8.44,2.88,12.53-1.24,3.67-4.3,6.15-8.61,7-2.06,.4-4.11-.26-5.4-1.72-1.02-1.17-2.43-3.63-.42-7.02,1.06-1.79,2.79-2.63,5.03-2.41l-.15,1.61c-1.6-.13-2.75,.39-3.49,1.63-1.13,1.92-1.05,3.64,.25,5.13,.9,1.03,2.39,1.49,3.87,1.2,3.72-.73,6.35-2.84,7.39-5.93,1.2-3.55,.19-7.84-2.55-10.94-1.7-1.91-5.5-4.93-11.92-3.58-4.74,.99-8.33,3.32-10.67,6.9-2.87,4.39-3.13,9.56-2.42,12.92,1.33,6.29,5.86,13.19,11.27,17.17,20.98,15.4,63.89,23.95,117.79,23.32,26.69-.29,44.5-8.55,47.64-22.11,1.76-7.6-2-15.65-8.88-19.17-28.48-14.32-72.51,1.16-111.51,16.82-62.75,25.2-93.01,71.68-94.46,96.63-.44,7.6,1.75,12.93,6.33,15.42,4.2,2.28,7.82,2,10.47-.81,3.66-3.88,4.5-11.73,2.48-14.97-.79-1.27-1.84-1.88-2.74-1.7-.78,.22-1.43,1.06-1.6,2.16-.38,2.39,1.18,6.28,6.71,10.03,4.45,3.02,9.31,2.4,12.37-1.57,4.04-5.24,3.48-14.62-5.43-22.42-45.01-39.4-157.54-62.11-188.18-50.04-15.4,6.06-25.04,15.98-26.44,27.21"/>
  <path d="M604.64,123.72c38.95-14.94,45.19-25.48,43.82-33.81-1.05-6.33-8.95-10.53-17.31-9.15-5.5,.91-10.35,3.32-13.67,6.81-3.23,3.4-4.66,7.43-4.01,11.36,.65,3.96,3.42,5.85,7.62,5.15l.26,1.6c-5.05,.82-8.68-1.66-9.48-6.49-.73-4.45,.84-8.97,4.43-12.74,3.56-3.74,8.74-6.32,14.58-7.29,9.21-1.52,17.98,3.29,19.17,10.49,1.97,11.92-8.9,21.38-38.49,33.17l-6.93,.91Z"/>
  <path d="M885.65,182.13c-4.28-9.42-15.85-20.65-38.89-20.65-18.12,0-28.16,7.96-42.35,14.27-16.14,7.18-31.39,13.96-59.97,12.74-8.19-.35-14.53-2.69-17.39-6.41-1.7-2.2-2.21-4.91-1.53-8.05,1.37-6.29,6.4-7.75,10.31-7.09,3.62,.61,7.04,3.17,6.58,6.87l1.49,.19c.57-4.64-3.51-7.81-7.83-8.54-4.91-.83-10.53,1.39-12.02,8.25-.78,3.59-.17,6.71,1.81,9.29,3.13,4.07,9.89,6.62,18.51,6.99,28.97,1.26,44.35-5.61,60.65-12.86,14.07-6.26,23.01-13.74,41.84-14.15,15.46-.33,31.57,6.88,37.42,19.77,8.53,18.79-9.37,72.78-46.96,75.27-9.95,.66-16.28-5.96-17.16-19.17-.13-1.96-.11-4.09-.07-6.06,26.37-4.86,41.02-13.69,40.21-25.76-.62-9.29-10.87-13.2-21.46-12.5-22.5,1.49-40.68,23.66-39.22,45.68,1.04,15.65,12.12,24.74,29.73,23.57,49.92-3.32,65.09-62.33,56.31-81.66Zm-47.82,14.61c4.57-.3,7.37,2.46,7.76,8.33,.4,6.03-1.81,12.24-6.58,16.82-4.01,3.71-10.22,6.41-18.79,8.12,1.03-16.61,7.99-32.63,17.6-33.27Z"/>
  <path d="M182.78,460.52c-20.46,.04-47.29-4.87-49.42-32.51-1.96-25.43,24.8-57.31,103.44-47.55,21.07,3.71,37.7,12.68,53.79,21.35,21.91,11.82,42.61,23,73.76,22.14,27.44-.73,52.09-10.74,65.92-26.78,7.57-8.78,11.13-18.64,10.03-27.76-.85-6.97-4.62-11.59-10.36-12.66-6.09-1.14-12.68,2.12-15.69,7.75-2.05,3.84-1.74,8.29,.79,11.33,1.37,1.65,3.14,2.65,5.26,2.96,2.65,.38,5.23-.63,6.55-2.59,.59-.88,1.1-2.3,.76-3.67-.27-1.11-1.06-2.04-2.36-2.74l.78-1.42c1.68,.92,2.78,2.22,3.15,3.78,.58,2.37-.61,4.39-.99,4.95-1.67,2.48-4.85,3.78-8.13,3.29-2.52-.37-4.63-1.56-6.27-3.53-2.95-3.55-3.33-8.7-.97-13.13,3.33-6.23,10.64-9.84,17.41-8.57,6.48,1.21,10.74,6.33,11.67,14.06,1.16,9.59-2.53,19.89-10.4,29.02-14.12,16.38-39.21,26.6-67.1,27.34-1.07,.03-2.14,.04-3.19,.04-29.88,0-50.96-11.37-71.38-22.38-15.97-8.61-32.48-17.51-53.3-21.18-56.91-5.89-84.56,7.14-86.39,40.67-1.18,21.69,13.82,31.61,25.17,33.9,5.06,1.02,12.07,.88,16.8-1.18,7.69-3.35,16.06-7.93,23.37-30.69,5.41-16.82,17.77-118.08,21.14-146.42,3.25-30.4,25.4-34.71,32.97-34.67,17.53,.1-1.77,33.4-21.79,53.62-18.4,18.58-38.28,32.23-58.64,38.09-8.22,2.37-17.71,3.35-25.51,3.35-17.29,0-33.51-5.79-48.46-17.33-22.43-17.31-35.92-18.57-43.28-16.59-3.15,.85-6,2.98-8.13,5.58-1.47,1.8-2.53,3.95-2.93,6.25-.51,2.97,.12,5.03,1.11,5.77,1.18,.88,2.81,.49,3.41-.63,.8-1.5,.13-4.04-2.34-5.53-2.45-1.47-7.51-1.37-11.14,1.13-2.21,1.52-5.34,5.21-4.4,10.54,1.13,6.33,5.31,9.75,10.51,11,5.64,1.36,11.96-1.12,15.76-6.14,4.95-6.54,4.64-15.91-.85-25.7-3.36-6-7.66-9.56-12.07-11.56-8.89-4.04-19.22-1.9-25.75,5.36-16.03,17.84-11.28,58.81,14.44,63.02,84.59,13.85,50.52-192.51,105.27-192.51,13.46,0,16.13,13.54,16.13,23.93,0,19.51-17.99,50.81-55.03,50.25-35.7,0-59.14-17.29-59.14-51.62,0-52.41,44.77-92.72,90.84-89.28,11.02,.52,20.38,10.15,20.38,21.29s-9,20.24-19.98,20.8c-10.36,0-15.52-3.85-15.75-11.47-.08-2.8,1.28-6.68,4.53-9.06,2.17-1.59,5.95-3.05,11.7-1.03,3.28,1.15,5.55,3.47,6.05,6.21,.31,1.7-.14,3.25-1.21,4.15-1,.85-2.4,1.01-3.93,.46-1.56-.57-2.78-2.82-3.51-5.59-.83-3.18-.71-6.53,.14-9.71,3.21-12.04,17.41-39.9,79.89-50.59,40.42-6.91,55.38,3.02,60.7,9.55,4.5,5.53,5.52,12.66,2.81,19.57-3.4,8.66-11.97,15.15-21.82,16.54-32.82,4.62-61.23-10.32-88.7-24.76,0,0-31.19-16.12-45.19-20.6-38.57-12.34-73.74-10.03-99.04,6.51C16.07,89.09,4.1,108.49,1.85,130.14c-2.59,24.92,16.82,51.25,44.19,59.95,27.25,8.65,52.79-2.66,68.31-30.28,12.81-22.8,8.08-38.76,1.85-48.13-9.37-14.11-28.66-22.49-46.89-20.41-13.98,1.6-24.53,9.29-28.94,21.09-2.37,6.34-.94,12.9,3.64,16.71,3.79,3.15,11.04,2.12,12.92,.92,.34-.22,5.32-3.45,3.92-7.59-.61-1.8-1.62-3.03-3-3.67-1.7-.78-3.94-.64-6.5,.39l-.61-1.5c2.99-1.21,5.67-1.33,7.78-.36,1.8,.82,3.1,2.38,3.86,4.62,1.82,5.34-3.28,8.72-4.61,9.49-3.19,1.86-10.53,2.51-14.8-1.05-5.12-4.26-6.73-11.53-4.12-18.52,4.64-12.39,15.67-20.45,30.28-22.13,18.81-2.15,38.73,6.53,48.43,21.12,9.16,13.78,8.53,31.48-1.78,49.82-12.4,22.06-31.05,33.98-51.92,33.98-5.95,0-12.08-.97-18.3-2.94C17.48,182.71-2.43,155.63,.24,129.97c2.3-22.14,14.53-41.97,33.55-54.4,25.71-16.8,61.37-19.18,100.42-6.69,14.13,4.52,45.45,20.71,45.45,20.71,28.49,14.98,55.4,29.11,87.72,24.59,9.29-1.3,17.35-7.4,20.54-15.53,2.49-6.35,1.56-12.9-2.56-17.96-5.09-6.26-19.56-15.75-59.17-8.98-62.24,10.65-75.76,38.18-78.68,49.61-.76,2.97-.82,6.1,0,9.05,.61,2.2,1.53,3.78,2.43,4.11,.97,.35,1.78,.29,2.33-.17,.61-.52,.87-1.52,.66-2.62-.4-2.16-2.27-4.02-5-4.98-4.03-1.41-7.56-1.13-10.21,.81-2.77,2.03-3.94,5.33-3.87,7.7,.2,6.67,4.86,9.9,14.31,9.9,10.13-.51,18.17-8.93,18.17-19.18s-8.74-18.74-18.87-19.26c-41.77,0-63.7,44.92-63.7,80.85,0,17.68,3.1,54.56,33.27,54.56,32.65,0,50.97-24.05,50.97-47.7,0-7.95-3.57-17.35-10.86-14.34-28.37,11.73,1.81,194.2-107.03,187.18-13.44-.87-44.85-9.26-41.97-41.59,2.53-28.37,29.88-34.42,39.68-34.59,8.13-.61,19.19,2.24,26.47,15.21,5.82,10.38,6.09,20.39,.73,27.47-3.41,4.51-8.71,7.15-13.93,7.15-1.18,0-2.35-.13-3.49-.41-5.78-1.39-10.5-5.39-11.73-12.29-.86-4.82,1.39-9.62,5.07-12.15,3.82-2.63,9.6-3.16,12.9-1.18,3.34,2,4.11,5.48,2.94,7.68-.78,1.45-2.74,2.93-5.53,1.33-1.25-.72-2-2.52-2.16-4.77-.23-3.22,.92-6.38,2.86-8.97,2.39-3.19,5.77-5.88,9.51-6.89,7.73-2.07,21.74-.84,44.69,16.88,14.19,10.96,65.54,41.6,130.47-23.98,20.56-20.76,30.1-43.03,27.33-47.17-.64-.96-2.13-1.69-3.96-1.16-2.76,.79-9.6,6.18-12.58,34.04l-15.14,125.02c-6.81,39.02-39.43,53.65-59.52,53.65Z"/>
  <path d="M607.06,65.56c0,7.79-6.33,14.12-14.12,14.12-5.19,0-9.41-4.22-9.41-9.41s4.22-9.41,9.41-9.41,9.41,4.22,9.41,9.41h-1.62c0-4.3-3.5-7.79-7.79-7.79s-7.79,3.49-7.79,7.79,3.49,7.79,7.79,7.79c6.89,0,12.5-5.61,12.5-12.5-.47-11.82-11.13-16.23-22.36-16-15.14,.31-28.36,16.92-24.03,37.4,1.06,5.04,4.13,13.59,15.55,20.02,12.74,7.1,18.66,3.44,19.94,2.51,1.02-.74,1.56-1.7,1.37-2.69-.16-.84-.95-1.74-1.85-2.11-1.19-.48-3.65-.74-6.35,.05-14.3,4.17-26.45,14.5-33.93,27.38-5.4,9.29-8.35,20.13-6.58,30.88,3.94,23.91,20.43,34.22,43.22,30.78,33.17-5.01,46.94-29.05,43.74-51.17-2.09-14.42-14.25-19.16-25.11-18.2-5.79,.51-10.5,5.09-10.44,10.91,.08,7.68,8.11,9.77,12.65,10.34,22.46,2.83,50.58-12.15,69.92-37.24,17.05-22.12,22.63-46.78,14.93-65.96-7.82-19.47-22.47-33.09-41.25-38.36-27.02-7.58-60.69,2.3-94.83,27.83-4.37,3.26-8.69,6.67-12.88,9.97-30.25,23.84-59.98,45.66-121.32,38.35-16.75-2-44.35-19.14-46.73-36.5-.82-5.99,2.67-12.65,10.93-13.78,2.93-.39,5.68,.44,8.13,2.49,1.37,1.27,2.37,2.5,2.37,2.5,2.05,2.5,3.37,5.56,3.93,9.07,.34,2.16-.8,4.22-2.72,4.9-1.23,.45-2.58,.31-3.69-.36-1.11-.67-1.84-1.8-2.02-3.08-.79-5.76,1.9-16.61,10.06-17.73,4.16-.56,7.67,.33,10.23,2.59,2.11,1.86,3.51,4.62,3.94,7.76,1.36,7.29-5.56,19.6-17.2,32.19-23.32,23.9-62.26,35.96-96.22,35.52-15.65,0-30.95-4.22-40.68-15.31-7.59-8.64-9.72-21-4.19-32.56,5.77-12.08,18.07-19.46,30.69-18.41,5,.94,9.74,2.09,13.77,6.06,4.08,4,5.53,9.72,3.71,14.56-1.23,3.27-4.82,5.21-9.07,5.04-2.13-.11-4.03-1.32-5.06-3.26-1.04-1.95-1.01-4.22,.1-6.08l.11-.18,1.36,.87c-.89,1.5-.92,3.17-.15,4.62,.76,1.43,2.15,2.32,3.71,2.4,3.63,.19,6.48-1.35,7.48-3.99,1.6-4.24,.29-9.28-3.33-12.83-3.71-3.64-8.2-4.73-12.86-5.61-11.87-1.01-23.53,6.03-29.01,17.51-5.22,10.93-2.93,22.02,4.64,31,22.84,27.14,99.82,14.39,133.82-20.46,11.12-12.03,18.03-24.11,16.78-30.82-.38-2.79-1.6-5.19-3.42-6.8-2.22-1.96-5.24-2.69-8.94-2.19-6.99,.95-9.36,10.86-8.67,15.9,.11,.8,.57,1.49,1.25,1.91,.7,.43,1.52,.51,2.31,.22,1.18-.42,1.88-1.74,1.66-3.12-.51-3.23-1.72-6.02-3.59-8.3-.8-1.07-2.15-2.29-2.15-2.29-2.09-1.75-4.42-2.46-6.87-2.13-7.2,.99-10.25,6.76-9.54,11.95,2.28,16.67,29.05,33.17,45.31,35.11,60.6,7.22,90.18-14.41,120.13-38.01,4.19-3.3,8.52-6.72,12.91-10,34.55-25.83,68.73-35.81,96.23-28.09,19.28,5.41,34.31,19.37,42.32,39.32,7.92,19.72,2.25,44.98-15.15,67.55-18.09,23.46-43.79,38.21-65.7,38.21-1.94,0-3.84-.12-5.71-.35-4.67-.58-12.68-2.68-13.92-10.15-1.1-6.7,3.45-13.05,10.15-14.15,12.35-1.55,26.85,3.94,29.38,20.27,3.67,23.71-12.27,51.61-45.92,56.81-37.2,5.76-64.1-7.34-67-31.87-3.37-28.53,19.72-49.26,48.91-60.84,.05-.05,16.31-6.4,21.88-3.92,1.46,.65,2.65,1.49,2.93,2.95,.31,1.61-.45,3.31-1.99,4.42-.88,.64-3.9,1.97-6.82,1.97-3.37,0-4.83,.3-17.43-2.95-12.6-3.25-26.51-14.72-28.86-28.96-3.33-20.19,14.64-31.44,32.89-33.84,19.36-2.54,31.13,5.48,31.79,18.53Z"/>
  <path d="M653.62,346.47c-.39-2.02-1.39-4.5-3.01-5.78-2.21-1.75-5.04-2-7.09-1.65-1.81,.31-3.16,1.66-3.9,2.71-.73,1.05-1.01,2.32-.78,3.59,.47,2.6,2.97,4.33,5.57,3.87l.29,1.59c-.38,.07-.76,.1-1.14,.1-3.05,0-5.75-2.18-6.31-5.28-.62-3.48,2.51-7.55,5.99-8.17,2.49-.44,5.47-.11,8.31,1.92,2.05,1.47,3.24,4.4,3.68,6.88,1.27,9.72-2.61,17.52-7.77,23.4-5.24,5.97-13.61,9.39-22.97,9.39-7.19,0-13.48-2.84-17.7-8-4.87-5.95-6.53-14.25-4.68-23.38,2.79-13.79,13.33-25.01,29.68-31.59,20.28-8.16,48.05-9.03,82.54-2.58,57.09,10.68,73.87-14.64,83.9-29.77,3.38-5.09,6.05-9.12,9.33-10.51,2.8-1.18,4.91-1.22,6.25-.09,1.35,1.13,1.69,3.11,1.62,4.49-.89,12.13-19.28,16.85-27.63,15.35-11.59-2.09-17.75-11.24-18.16-22.51-.64-17.31,9.12-42.01,6.07-54.94-1.18-4.99-6.35-7.27-10.78-6.67-8.03,1.09-14.4,11.98-16.54,35.48l-2.47,26.05c-.23,3.2-3.38,4.64-11.08,5.68-6.39,.87-8.29,.46-8.64-2.16-.25-1.8,1.79-19.95,3.69-41.58,.26-4.21,.55-9.42,.17-12.21-.45-3.28-1.98-4.74-4.93-4.34-1.43,.19-2.76,1.15-3.87,2.91l-1.07-.32c1.34-5.95,6.54-9.32,12.74-10.16,9.51-1.29,13.81,3.13,14.81,10.51,.74,5.41-.17,11.04-.66,14.78l.49-.07c3.31-19.82,9.81-28.55,24.23-30.51,10.82-1.47,19.58,4.01,21.03,14.67,1.56,11.47-6.18,45.2-6.05,53.97,.09,6.15,3.15,13.28,8.34,14.25,11.48,2.17,17.32-2.83,18.35-7.94,.09-1.13,.16-2.77-.7-3.48-1.05-.87-3.07-.3-4.58,.34-2.83,1.2-5.38,5.04-8.61,9.91-10.25,15.46-27.41,41.35-85.55,30.46-46.08-8.62-102.63-5.18-110.33,32.9-1.75,8.65-.2,16.47,4.35,22.04,3.91,4.77,9.74,7.4,16.44,7.4,8.9,0,16.82-3.22,21.75-8.84,4.91-5.59,8.62-12.73,7.39-22.1Z"/>
</svg>