<?xml version="1.0" encoding="utf-8"?>
<!-- Generator: Adobe Illustrator 26.5.0, SVG Export Plug-In . SVG Version: 6.00 Build 0)  -->
<svg version="1.1" id="Layer_1" xmlns="http://www.w3.org/2000/svg" xmlns:xlink="http://www.w3.org/1999/xlink" x="0px" y="0px"
	 viewBox="0 0 500.42 20.38" style="enable-background:new 0 0 500.42 20.38;" xml:space="preserve">
<style type="text/css">
	.st0{fill:none;stroke:#BC9D51;stroke-miterlimit:10;}
</style>
<g>
	<path class="st0" d="M500.42,0.5l-236.46,0c0,0-18.41,13.53-26.36,13.53c-1.73,0-2.81-1.26-2.81-2.59c0-1.44,0.89-2.61,2.81-2.61
		c4.54,0,14.19,5.6,14.19,9.33c0,0.91-0.55,1.72-1.58,1.72c-1.02,0-1.58-0.81-1.58-1.72c0-3.73,9.65-9.33,14.19-9.33
		c1.92,0,2.81,1.17,2.81,2.61c0,1.32-1.08,2.59-2.81,2.59c-7.95,0-26.36-13.53-26.36-13.53L0,0.5"/>
</g>
</svg>
