<?xml version="1.0" encoding="utf-8"?>
<!-- Generator: Adobe Illustrator 26.5.0, SVG Export Plug-In . SVG Version: 6.00 Build 0)  -->
<svg version="1.1" id="Layer_1" xmlns="http://www.w3.org/2000/svg" xmlns:xlink="http://www.w3.org/1999/xlink" x="0px" y="0px"
	 viewBox="0 0 27 39.3" style="enable-background:new 0 0 27 39.3;" xml:space="preserve">
<style type="text/css">
	.st0{fill:#175038;}
	.st1{fill:#003924;}
	.st2{fill:url(#SVGID_1_);}
	.st3{fill:url(#SVGID_00000059286190308142623570000018043192799768969118_);}
	.st4{fill:url(#SVGID_00000036958762865015517510000016183452247892283827_);}
	.st5{fill:url(#SVGID_00000077295882694679432060000002499499909929384321_);}
</style>
<g>
	<path class="st0" d="M13.5,38.8c-1.8-12.7-13-12.6-13-25.3c0-7.2,5.8-13,13-13s13,5.8,13,13C26.5,24.2,15.5,26.2,13.5,38.8z"/>
	<path class="st1" d="M13.5,39.3C13.5,39.3,13.5,39.3,13.5,39.3c-0.3,0-0.5-0.2-0.5-0.4c-0.8-5.9-3.8-9-6.7-12
		C3.2,23.7,0,20.3,0,13.5C0,6.1,6.1,0,13.5,0S27,6.1,27,13.5c0,5.6-2.9,8.9-6,12.4c-3,3.4-6.1,6.9-7,13C14,39.1,13.7,39.3,13.5,39.3
		z M13.5,1C6.6,1,1,6.6,1,13.5c0,6.4,2.9,9.5,6.1,12.7c2.6,2.7,5.2,5.4,6.5,10.1c1.4-5,4.2-8.2,6.8-11.1c3.1-3.5,5.7-6.5,5.7-11.7
		C26,6.6,20.4,1,13.5,1z"/>
</g>
<g>
	<linearGradient id="SVGID_1_" gradientUnits="userSpaceOnUse" x1="8.3103" y1="15.574" x2="13.1898" y2="15.574">
		<stop  offset="0" style="stop-color:#DABF71"/>
		<stop  offset="1" style="stop-color:#CDA703"/>
	</linearGradient>
	<path class="st2" d="M12.6,5.9c-0.2,0-0.3,0.1-0.3,0.3V12c0,0.2-0.1,0.3-0.3,0.3c-0.2,0-0.3-0.1-0.3-0.3V6.2c0-0.2-0.1-0.3-0.3-0.3
		c-0.2,0-0.3,0.2-0.3,0.3V12c0,0.2-0.1,0.3-0.3,0.3c-0.1,0-0.2,0-0.2-0.1c-0.1-0.1-0.1-0.1-0.1-0.2V6.2c0-0.2-0.1-0.3-0.3-0.3
		C10,5.9,10,5.9,9.9,6C9.8,6,9.8,6.1,9.8,6.2V12c0,0.2-0.1,0.3-0.3,0.3c-0.1,0-0.2,0-0.2-0.1c-0.1-0.1-0.1-0.1-0.1-0.2V6.2
		c0-0.2-0.1-0.3-0.3-0.3C8.7,5.9,8.5,6,8.5,6.2l-0.2,6.1c0,1.1,0.5,2,1.8,2.1l-0.7,9.6v0.1v0c0.1,0.4,0.3,0.8,0.7,0.9
		c0.4,0.2,0.8,0.2,1.2,0c0.4-0.2,0.6-0.5,0.7-0.9v-0.1h0v-0.1l-0.7-9.6c1.3-0.2,1.9-1.1,1.9-2.1L13,6.2v0C12.9,6,12.8,5.9,12.6,5.9
		L12.6,5.9z"/>
	
		<linearGradient id="SVGID_00000032609761692876447560000003374326223101381268_" gradientUnits="userSpaceOnUse" x1="15.112" y1="15.1826" x2="18.6902" y2="15.1826">
		<stop  offset="0" style="stop-color:#DABF71"/>
		<stop  offset="1" style="stop-color:#CDA703"/>
	</linearGradient>
	<path style="fill:url(#SVGID_00000032609761692876447560000003374326223101381268_);" d="M18.7,24.2L18.7,24.2l-0.6-8.8V4.9
		c-2.3,0.5-3,2.8-3,8.3v2.3h1.7l-0.6,8.6v0.1v0c0,0.4,0.2,0.9,0.6,1.1c0.4,0.2,0.9,0.2,1.2,0C18.5,25,18.7,24.6,18.7,24.2L18.7,24.2
		L18.7,24.2z"/>
</g>
</svg>
